<?xml version="1.0" standalone="no"?>
<!DOCTYPE svg PUBLIC "-//W3C//DTD SVG 20010904//EN"
 "http://www.w3.org/TR/2001/REC-SVG-20010904/DTD/svg10.dtd">
<svg version="1.0" xmlns="http://www.w3.org/2000/svg"
 width="457.000000pt" height="436.000000pt" viewBox="0 0 457.000000 436.000000"
 preserveAspectRatio="xMidYMid meet">

<g transform="translate(0.000000,436.000000) scale(0.100000,-0.100000)"
fill="#000000" stroke="none">
<path d="M2120 3951 c-157 -157 -537 -522 -815 -781 -55 -51 -204 -196 -332
-322 -127 -125 -237 -228 -242 -228 -8 0 -11 160 -11 516 l0 515 344 -3 344
-3 32 52 c26 45 118 137 223 225 l28 23 -622 0 -622 1 5 -958 c3 -527 8 -961
11 -965 4 -4 78 63 165 149 86 86 182 177 212 204 88 76 321 297 645 609 473
457 566 546 635 608 36 32 91 84 122 114 l56 56 78 -69 c109 -97 497 -469
1063 -1019 103 -99 233 -225 291 -280 58 -55 169 -162 246 -237 78 -76 149
-138 157 -138 13 0 17 24 21 153 5 105 21 1528 21 1773 0 1 -285 -1 -634 -4
l-633 -5 121 -121 c66 -67 130 -133 142 -149 l21 -27 355 5 356 5 -6 -82 c-4
-46 -7 -280 -7 -521 0 -250 -4 -437 -9 -435 -10 4 -601 569 -881 844 -107 105
-253 245 -325 311 -71 66 -184 175 -250 242 -66 66 -122 120 -125 119 -3 0
-84 -80 -180 -177z"/>
<path d="M2125 3015 c-99 -100 -369 -367 -600 -593 -231 -226 -438 -434 -460
-463 l-40 -51 -282 6 -283 7 0 -155 c0 -85 4 -157 9 -160 5 -4 11 0 13 6 4 10
276 12 1349 9 739 -1 1389 -5 1444 -6 246 -9 655 -41 695 -54 14 -5 34 -9 45
-9 11 1 46 -1 78 -2 l57 -3 0 -100 c0 -55 2 -98 4 -96 2 2 6 130 9 285 l5 281
-294 0 c-162 0 -295 2 -297 4 -27 35 -472 493 -587 604 -85 83 -273 268 -416
413 -143 144 -262 261 -265 261 -2 -1 -85 -84 -184 -184z m585 -595 c222 -220
427 -421 456 -447 30 -25 54 -49 54 -53 0 -10 -1661 -14 -1753 -4 l-66 7 342
337 c188 185 392 386 452 447 61 60 111 110 112 111 1 1 182 -178 403 -398z"/>
<path d="M454 1251 c-2 -2 -4 -212 -4 -465 l0 -461 1866 0 1866 0 -6 29 c-3
16 -6 227 -6 469 l0 440 -1856 -4 c-1021 -2 -1858 -6 -1860 -8z m3438 -311 c0
-14 2 -95 3 -180 l1 -155 -1594 -3 -1595 -2 7 52 c3 29 6 112 6 183 l0 131
1585 -1 1585 0 2 -25z"/>
</g>
</svg>
